mastitorrents.com
 




----------------------------------------------------------------------------------------------------
----------------------------------------------------------------------------------------------------

LIKE US @ FACEBOOK



Search for "MastiTorrentsReleasers" and "MastiTorrents" 



We are waiting for you!!!



----------------------------------------------------------------------------------------------------
----------------------------------------------------------------------------------------------------









description:



Foreword
=======
Gandu is a 2010 black-and-white Bengali film directed by Q. (Qaushiq Mukherjee) who has described the film as a "rap musical". It features Anubrata, Joyraj, Kamalika, Shilajit, and Rii in the main roles. The film's music is by the alternative rock band Five Little Indians. Gandu previewed at Yale University before making its international premiere on October 29, 2010 at the 2010 South Asian International Film Festival in New York City. Gandu was an official selection at the 2011 Berlin International Film Festival and was also screened at the Slamdance Film Festival.

Gandu has received mainly positive reviews from critics. John Reiss called it "a stunning visual and narrative feast" while Variety said it is "a happily transgressive rhyme-fueled romp". The film has caused some controversy because of language and scenes of full frontal sex. Media outlets have reported audience walkouts during sex scenes and it has not been publicly released in India.

Plot
===
Frustrated with his life in a poor Kolkata neighborhood, aspiring rapper Gandu steals money from his mother to finance a trip with his friend Ricksha. The two go off in a heroin-induced haze, finding it increasingly difficult to separate reality from hallucination.

 
http://www.imdb.com/title/tt1841611/


Runtime - 01:26
Subtitle - English [Hardcoded]
Quality - Pre-DVDRip

Quote:
General

Complete name : D:\Gandu - The Loser (Bengali 2010) 18+ hot movie Pre-Dvd Rip TDM -=MTR=- mastitorrents\Gandu - The Loser (Bengali 2010) 18+ hot movie Pre-Dvd Rip TDM -=MTR=- mastitorrents.mkv
Format : Matroska
Format version : Version 2
File size : 509 MiB
Duration : 1h 25mn
Overall bit rate : 831 Kbps
Encoded date : UTC 2011-10-25 20:37:38
Writing application : mkvmerge v4.7.0 ('Just Like You Imagined') built on Apr 21 2011 01:13:14
Writing library : libebml v1.2.0 + libmatroska v1.1.0

Video
ID : 1
Format : AVC
Format/Info : Advanced Video Codec
Format profile : High@L2.1
Format settings, CABAC : Yes
Format settings, ReFrames : 4 frames
Codec ID : V_MPEG4/ISO/AVC
Duration : 1h 25mn
Bit rate : 701 Kbps
Width : 640 pixels
Height : 240 pixels
Display aspect ratio : 2.612
Original display aspect ratio : 2.614
Frame rate : 25.000 fps
Color space : YUV
Chroma subsampling : 4:2:0
Bit depth : 8 bits
Scan type : Progressive
Bits/(Pixel*Frame) : 0.183
Stream size : 421 MiB (83%)
Writing library : x264 core 115 r1995 c1e60b9
Encoding settings : cabac=1 / ref=3 / deblock=1:-1:-1 / analyse=0x3:0x113 / me=hex / subme=7 / psy=1 / psy_rd=1.00:0.15 / mixed_ref=1 / me_range=16 / chroma_me=1 / trellis=1 / 8x8dct=1 / cqm=0 / deadzone=21,11 / fast_pskip=1 / chroma_qp_offset=-3 / threads=3 / sliced_threads=0 / nr=0 / decimate=1 / interlaced=0 / bluray_compat=0 / constrained_intra=0 / bframes=3 / b_pyramid=2 / b_adapt=1 / b_bias=0 / direct=1 / weightb=1 / open_gop=0 / weightp=2 / keyint=250 / keyint_min=25 / scenecut=40 / intra_refresh=0 / rc_lookahead=40 / rc=2pass / mbtree=1 / bitrate=701 / ratetol=1.0 / qcomp=0.60 / qpmin=0 / qpmax=69 / qpstep=4 / cplxblur=20.0 / qblur=0.5 / ip_ratio=1.40 / aq=1:1.00

Audio
ID : 2
Format : AC-3
Format/Info : Audio Coding 3
Mode extension : CM (complete main)
Codec ID : A_AC3
Duration : 1h 25mn
Bit rate mode : Constant
Bit rate : 128 Kbps
Channel(s) : 2 channels
Channel positions : Front: L R
Sampling rate : 48.0 KHz
Bit depth : 16 bits
Compression mode : Lossy
Stream size : 78.5 MiB (15%)
Language : English








Screens/Covers:

 
http://desipics4u.com/images/59392956441780724601.png
 
http://desipics4u.com/images/68366567844287819788.png
 
http://desipics4u.com/images/14490508493062749124.png
 
http://desipics4u.com/images/47341885700973625776.png
 
http://desipics4u.com/images/80686093004745184658.png


















****check out my other releases****

 
http://thepiratebay.org/user/tdkdemon/






